<svg xmlns="http://www.w3.org/2000/svg" viewBox="0 0 880 340" width="880" height="340" role="img" aria-labelledby="t d" preserveAspectRatio="xMidYMid meet">
<title id="t">Ubhay - builds local-first systems on one 8 GB card</title><desc id="d">UbhayAab on GitHub. 37 repositories, 26 public. 1,536 commits. Top languages C++ 29%, JavaScript 27%, Python 10%. 24 percent of commits land between 11pm and 6am.</desc>
<defs>
<pattern id="hddots" width="22" height="22" patternUnits="userSpaceOnUse">
  <circle cx="1" cy="1" r="1" fill="#0F131D"/>
</pattern>
<radialGradient id="hdglow">
  <stop offset="0%" stop-color="#FF7A18" stop-opacity="0.13"/>
  <stop offset="100%" stop-color="#FF7A18" stop-opacity="0"/>
</radialGradient>
<clipPath id="hdtype"><rect x="56" y="186" width="377.2" height="24" class="typerect"/></clipPath>
<clipPath id="hdwipe"><rect x="56" y="268" width="768" height="13" class="wiperect"/></clipPath></defs>
<style>

.wm{stroke-dasharray:100;stroke-dashoffset:0;animation:draw 1.05s cubic-bezier(.6,0,.3,1) backwards,ink .5s ease 1.05s backwards}
@keyframes draw{from{stroke-dashoffset:100}}
@keyframes ink{from{stroke:#FF7A18}}
.caret{animation:blink 1.05s steps(1,end) infinite}
@keyframes blink{50%{opacity:0}}
.typerect{animation:type 1.5s steps(45,end) .55s backwards}
@keyframes type{from{width:0}}
.fade2{animation:rise .7s ease 1.7s backwards}
@keyframes rise{from{opacity:0;transform:translateY(6px)}}
.wiperect{animation:wipe 1.1s cubic-bezier(.4,0,.2,1) 1.5s backwards}
@keyframes wipe{from{width:0}}
.bar{animation:grow .5s cubic-bezier(.3,1.3,.5,1) backwards}
@keyframes grow{from{transform:scaleY(0)}}
.scan{opacity:0;animation:sweep 2.4s ease-out .2s}
@keyframes sweep{0%{opacity:.9;transform:translateY(0)}70%{opacity:.25}100%{opacity:0;transform:translateY(272px)}}
.pulse{animation:beat 3.4s ease-in-out infinite}
@keyframes beat{0%,100%{opacity:1}50%{opacity:.35}}
.glow{animation:breathe 9s ease-in-out infinite}
@keyframes breathe{0%,100%{opacity:1}50%{opacity:.62}}
@media (prefers-reduced-motion: reduce){*{animation:none!important;transition:none!important}}
</style>
<rect x="0" y="0" width="880" height="340" rx="20" fill="#06070B"/>
<rect x="0.75" y="0.75" width="878.5" height="338.5" rx="19.25" fill="none" stroke="#1B2130" stroke-width="1.5"/>
<rect x="0" y="0" width="880" height="340" rx="20" fill="url(#hddots)"/>
<ellipse cx="250" cy="120" rx="330" ry="150" fill="url(#hdglow)" class="glow"/>
<circle cx="28" cy="26" r="5" fill="#3C4457"/>
<circle cx="46" cy="26" r="5" fill="#3C4457"/>
<circle cx="64" cy="26" r="5" fill="#FF7A18" class="pulse"/>
<text x="88" y="30.5" font-family="ui-monospace,'SF Mono','Cascadia Mono','JetBrains Mono','Fira Code',Menlo,Consolas,monospace" font-size="12.5" font-weight="400" fill="#7C8699" text-anchor="start" textLength="165" lengthAdjust="spacing">ubhay@rtx5060:~/github</text>
<text x="824" y="30.5" font-family="ui-monospace,'SF Mono','Cascadia Mono','JetBrains Mono','Fira Code',Menlo,Consolas,monospace" font-size="12.5" font-weight="400" fill="#3C4457" text-anchor="end" textLength="247.5" lengthAdjust="spacing">37 repos · 26 public · 12 private</text>
<path d="M0,48 H880" stroke="#141926" stroke-width="1"/>
<rect x="0" y="46" width="880" height="2" fill="#FF7A18" class="scan"/>
<g transform="translate(56,80) scale(1.05)" fill="none" stroke="#EDF0F7" stroke-width="8.5" stroke-linecap="round" stroke-linejoin="round"><path d="M0,0 V50 C0,70 14,84 31,84 C48,84 62,70 62,50 V0" pathLength="100" transform="translate(0,0)" class="wm" style="animation-delay:0s"/><path d="M0,0 V84" pathLength="100" transform="translate(79,0)" class="wm" style="animation-delay:0.12s"/><path d="M0,0 H36 C50,0 57,8 57,20 C57,32 50,40 36,40 H0" pathLength="100" transform="translate(79,0)" class="wm" style="animation-delay:0.12s"/><path d="M0,40 H38 C53,40 62,49 62,62 C62,75 53,84 38,84 H0" pathLength="100" transform="translate(79,0)" class="wm" style="animation-delay:0.12s"/><path d="M0,0 V84" pathLength="100" transform="translate(158,0)" class="wm" style="animation-delay:0.24s"/><path d="M62,0 V84" pathLength="100" transform="translate(158,0)" class="wm" style="animation-delay:0.24s"/><path d="M0,44 H62" pathLength="100" transform="translate(158,0)" class="wm" style="animation-delay:0.24s"/><path d="M0,84 L31,0 L62,84" pathLength="100" transform="translate(237,0)" class="wm" style="animation-delay:0.36s"/><path d="M12,56 H50" pathLength="100" transform="translate(237,0)" class="wm" style="animation-delay:0.36s"/><path d="M0,0 L31,44 L62,0" pathLength="100" transform="translate(316,0)" class="wm" style="animation-delay:0.48s"/><path d="M31,44 V84" pathLength="100" transform="translate(316,0)" class="wm" style="animation-delay:0.48s"/></g>
<g clip-path="url(#hdtype)">
<text x="56" y="202" font-family="ui-monospace,'SF Mono','Cascadia Mono','JetBrains Mono','Fira Code',Menlo,Consolas,monospace" font-size="14" font-weight="400" fill="#FF7A18" text-anchor="start">&gt;</text>
<text x="72" y="202" font-family="ui-monospace,'SF Mono','Cascadia Mono','JetBrains Mono','Fira Code',Menlo,Consolas,monospace" font-size="14" font-weight="400" fill="#EDF0F7" text-anchor="start" textLength="361.2" lengthAdjust="spacing">builds local-first systems on one 8 GB card</text>
</g>
<rect x="436.2" y="191" width="8" height="15" fill="#FF7A18" class="caret"/>
<text x="56" y="224" font-family="ui-monospace,'SF Mono','Cascadia Mono','JetBrains Mono','Fira Code',Menlo,Consolas,monospace" font-size="11" font-weight="400" fill="#7C8699" text-anchor="start" class="fade2" textLength="455.4" lengthAdjust="spacing">llama.cpp internals, Supabase products, Electron tools, ad automation</text>
<rect x="548" y="72" width="276" height="176" rx="12" fill="#101420"/>
<rect x="548.5" y="72.5" width="275" height="175" rx="11.5" fill="none" stroke="#1B2130"/>
<text x="564" y="96" font-family="ui-monospace,'SF Mono','Cascadia Mono','JetBrains Mono','Fira Code',Menlo,Consolas,monospace" font-size="9.5" font-weight="400" fill="#7C8699" text-anchor="start" letter-spacing="1.6" textLength="86" lengthAdjust="spacing">COMMIT CLOCK</text>
<text x="808" y="96" font-family="ui-monospace,'SF Mono','Cascadia Mono','JetBrains Mono','Fira Code',Menlo,Consolas,monospace" font-size="9.5" font-weight="400" fill="#3C4457" text-anchor="end" textLength="62.7" lengthAdjust="spacing">882 commits</text>
<rect x="564" y="145.507" width="8.25" height="34.493" rx="1.5" fill="#4D7CFE" opacity="0.55" class="bar" style="animation-delay:0.9s;transform-origin:568.125px 180px"/>
<rect x="574.25" y="135.652" width="8.25" height="44.348" rx="1.5" fill="#4D7CFE" opacity="0.55" class="bar" style="animation-delay:0.922s;transform-origin:578.375px 180px"/>
<rect x="584.5" y="150.435" width="8.25" height="29.565" rx="1.5" fill="#4D7CFE" opacity="0.55" class="bar" style="animation-delay:0.944s;transform-origin:588.625px 180px"/>
<rect x="594.75" y="162.261" width="8.25" height="17.739" rx="1.5" fill="#4D7CFE" opacity="0.55" class="bar" style="animation-delay:0.966s;transform-origin:598.875px 180px"/>
<rect x="605" y="150.435" width="8.25" height="29.565" rx="1.5" fill="#4D7CFE" opacity="0.55" class="bar" style="animation-delay:0.988s;transform-origin:609.125px 180px"/>
<rect x="615.25" y="166.203" width="8.25" height="13.797" rx="1.5" fill="#4D7CFE" opacity="0.55" class="bar" style="animation-delay:1.01s;transform-origin:619.375px 180px"/>
<rect x="625.5" y="148.464" width="8.25" height="31.536" rx="1.5" fill="#4D7CFE" opacity="0.55" class="bar" style="animation-delay:1.032s;transform-origin:629.625px 180px"/>
<rect x="635.75" y="159.304" width="8.25" height="20.696" rx="1.5" fill="#4D7CFE" opacity="0.55" class="bar" style="animation-delay:1.054s;transform-origin:639.875px 180px"/>
<rect x="646" y="139.594" width="8.25" height="40.406" rx="1.5" fill="#4D7CFE" opacity="0.55" class="bar" style="animation-delay:1.076s;transform-origin:650.125px 180px"/>
<rect x="656.25" y="112" width="8.25" height="68" rx="1.5" fill="#FF7A18" opacity="1" class="bar" style="animation-delay:1.098s;transform-origin:660.375px 180px"/>
<rect x="666.5" y="142.551" width="8.25" height="37.449" rx="1.5" fill="#4D7CFE" opacity="0.55" class="bar" style="animation-delay:1.12s;transform-origin:670.625px 180px"/>
<rect x="676.75" y="138.609" width="8.25" height="41.391" rx="1.5" fill="#4D7CFE" opacity="0.55" class="bar" style="animation-delay:1.142s;transform-origin:680.875px 180px"/>
<rect x="687" y="155.362" width="8.25" height="24.638" rx="1.5" fill="#4D7CFE" opacity="0.55" class="bar" style="animation-delay:1.164s;transform-origin:691.125px 180px"/>
<rect x="697.25" y="150.435" width="8.25" height="29.565" rx="1.5" fill="#4D7CFE" opacity="0.55" class="bar" style="animation-delay:1.186s;transform-origin:701.375px 180px"/>
<rect x="707.5" y="146.493" width="8.25" height="33.507" rx="1.5" fill="#4D7CFE" opacity="0.55" class="bar" style="animation-delay:1.208s;transform-origin:711.625px 180px"/>
<rect x="717.75" y="122.841" width="8.25" height="57.159" rx="1.5" fill="#4D7CFE" opacity="0.55" class="bar" style="animation-delay:1.23s;transform-origin:721.875px 180px"/>
<rect x="728" y="147.478" width="8.25" height="32.522" rx="1.5" fill="#4D7CFE" opacity="0.55" class="bar" style="animation-delay:1.252s;transform-origin:732.125px 180px"/>
<rect x="738.25" y="127.768" width="8.25" height="52.232" rx="1.5" fill="#4D7CFE" opacity="0.55" class="bar" style="animation-delay:1.274s;transform-origin:742.375px 180px"/>
<rect x="748.5" y="133.681" width="8.25" height="46.319" rx="1.5" fill="#4D7CFE" opacity="0.55" class="bar" style="animation-delay:1.296s;transform-origin:752.625px 180px"/>
<rect x="758.75" y="164.232" width="8.25" height="15.768" rx="1.5" fill="#4D7CFE" opacity="0.55" class="bar" style="animation-delay:1.318s;transform-origin:762.875px 180px"/>
<rect x="769" y="140.58" width="8.25" height="39.42" rx="1.5" fill="#4D7CFE" opacity="0.55" class="bar" style="animation-delay:1.34s;transform-origin:773.125px 180px"/>
<rect x="779.25" y="151.42" width="8.25" height="28.58" rx="1.5" fill="#4D7CFE" opacity="0.55" class="bar" style="animation-delay:1.362s;transform-origin:783.375px 180px"/>
<rect x="789.5" y="115.942" width="8.25" height="64.058" rx="1.5" fill="#4D7CFE" opacity="0.55" class="bar" style="animation-delay:1.384s;transform-origin:793.625px 180px"/>
<rect x="799.75" y="143.536" width="8.25" height="36.464" rx="1.5" fill="#4D7CFE" opacity="0.55" class="bar" style="animation-delay:1.406s;transform-origin:803.875px 180px"/>
<path d="M564,180.5 H808" stroke="#1B2130"/>
<text x="568.125" y="195" font-family="ui-monospace,'SF Mono','Cascadia Mono','JetBrains Mono','Fira Code',Menlo,Consolas,monospace" font-size="8.5" font-weight="400" fill="#3C4457" text-anchor="middle">00</text>
<text x="629.625" y="195" font-family="ui-monospace,'SF Mono','Cascadia Mono','JetBrains Mono','Fira Code',Menlo,Consolas,monospace" font-size="8.5" font-weight="400" fill="#3C4457" text-anchor="middle">06</text>
<text x="691.125" y="195" font-family="ui-monospace,'SF Mono','Cascadia Mono','JetBrains Mono','Fira Code',Menlo,Consolas,monospace" font-size="8.5" font-weight="400" fill="#3C4457" text-anchor="middle">12</text>
<text x="752.625" y="195" font-family="ui-monospace,'SF Mono','Cascadia Mono','JetBrains Mono','Fira Code',Menlo,Consolas,monospace" font-size="8.5" font-weight="400" fill="#3C4457" text-anchor="middle">18</text>
<text x="803.875" y="195" font-family="ui-monospace,'SF Mono','Cascadia Mono','JetBrains Mono','Fira Code',Menlo,Consolas,monospace" font-size="8.5" font-weight="400" fill="#3C4457" text-anchor="middle">23</text>
<path d="M564,208 H808" stroke="#1B2130"/>
<text x="564" y="224" font-family="ui-monospace,'SF Mono','Cascadia Mono','JetBrains Mono','Fira Code',Menlo,Consolas,monospace" font-size="10.5" font-weight="400" fill="#EDF0F7" text-anchor="start" textLength="144.9" lengthAdjust="spacing">busiest hour  09:00 IST</text>
<text x="564" y="240" font-family="ui-monospace,'SF Mono','Cascadia Mono','JetBrains Mono','Fira Code',Menlo,Consolas,monospace" font-size="10.5" font-weight="400" fill="#7C8699" text-anchor="start" textLength="176.4" lengthAdjust="spacing">24% at night, peak Sun 01:00</text>
<g clip-path="url(#hdwipe)">
<rect x="56" y="268" width="220.976" height="13" rx="3" fill="#f34b7d"/>
<rect x="278.476" y="268" width="202.378" height="13" rx="3" fill="#f1e05a"/>
<rect x="482.354" y="268" width="77.629" height="13" rx="3" fill="#3572A5"/>
<rect x="561.483" y="268" width="71.241" height="13" rx="3" fill="#3178c6"/>
<rect x="634.224" y="268" width="50.85" height="13" rx="3" fill="#555555"/>
<rect x="686.574" y="268" width="27.902" height="13" rx="3" fill="#336790"/>
<rect x="715.976" y="268" width="25.391" height="13" rx="3" fill="#663399"/>
<rect x="742.867" y="268" width="21.869" height="13" rx="3" fill="#e34c26"/>
<rect x="766.236" y="268" width="21.774" height="13" rx="3" fill="#3A4E3A"/>
<rect x="789.51" y="268" width="34.49" height="13" rx="3" fill="#3C4457" opacity="0.5"/>
</g>
<circle cx="60" cy="301" r="4" fill="#f34b7d"/>
<text x="70" y="305" font-family="ui-monospace,'SF Mono','Cascadia Mono','JetBrains Mono','Fira Code',Menlo,Consolas,monospace" font-size="10.5" font-weight="400" fill="#7C8699" text-anchor="start" textLength="56.7" lengthAdjust="spacing">C++ 29.0%</text>
<circle cx="152.7" cy="301" r="4" fill="#f1e05a"/>
<text x="162.7" y="305" font-family="ui-monospace,'SF Mono','Cascadia Mono','JetBrains Mono','Fira Code',Menlo,Consolas,monospace" font-size="10.5" font-weight="400" fill="#7C8699" text-anchor="start" textLength="100.8" lengthAdjust="spacing">JavaScript 26.5%</text>
<circle cx="289.5" cy="301" r="4" fill="#3572A5"/>
<text x="299.5" y="305" font-family="ui-monospace,'SF Mono','Cascadia Mono','JetBrains Mono','Fira Code',Menlo,Consolas,monospace" font-size="10.5" font-weight="400" fill="#7C8699" text-anchor="start" textLength="75.6" lengthAdjust="spacing">Python 10.3%</text>
<circle cx="401.1" cy="301" r="4" fill="#3178c6"/>
<text x="411.1" y="305" font-family="ui-monospace,'SF Mono','Cascadia Mono','JetBrains Mono','Fira Code',Menlo,Consolas,monospace" font-size="10.5" font-weight="400" fill="#7C8699" text-anchor="start" textLength="94.5" lengthAdjust="spacing">TypeScript 9.5%</text>
<circle cx="531.6" cy="301" r="4" fill="#555555"/>
<text x="541.6" y="305" font-family="ui-monospace,'SF Mono','Cascadia Mono','JetBrains Mono','Fira Code',Menlo,Consolas,monospace" font-size="10.5" font-weight="400" fill="#7C8699" text-anchor="start" textLength="37.8" lengthAdjust="spacing">C 6.8%</text>
<text x="824" y="305" font-family="ui-monospace,'SF Mono','Cascadia Mono','JetBrains Mono','Fira Code',Menlo,Consolas,monospace" font-size="10.5" font-weight="400" fill="#3C4457" text-anchor="end" textLength="126" lengthAdjust="spacing">21 languages / 50 MB</text>
<text x="56" y="322" font-family="ui-monospace,'SF Mono','Cascadia Mono','JetBrains Mono','Fira Code',Menlo,Consolas,monospace" font-size="9.5" font-weight="400" fill="#3C4457" text-anchor="start" textLength="581.4" lengthAdjust="spacing">generated 23 Aug 2026 00:18 IST · 5 graphql points · 1,536 commits · last push 6 hours ago to UbhayAab</text>
</svg>
